<?xml version="1.0" encoding="utf-8"?>
<!-- Generator: Adobe Illustrator 25.2.0, SVG Export Plug-In . SVG Version: 6.00 Build 0)  -->
<svg version="1.1" id="Layer_1" xmlns="http://www.w3.org/2000/svg" xmlns:xlink="http://www.w3.org/1999/xlink" x="0px" y="0px"
	 viewBox="0 0 221.7 93.2" style="enable-background:new 0 0 221.7 93.2;" xml:space="preserve">
<style type="text/css">
	.st0{fill:#131211;}
	.st1{fill:none;}
	.st2{font-family:'BerlinSansFBDemi-Bold';}
	.st3{font-size:12px;}
</style>
<g>
	<g>
		<path class="st0" d="M91.6,76.6l-5.8-10l-5.8-10l-5.8-10l-11.5-20l-5.8-10l-5.8-10l-5.8,10l-5.8,10l-11.5,20l-5.8,10l-5.8,10
			l-5.8,10L5,86.6h11.5l5.8-10l5.8-10h46.2l5.8,10l5.8,10h11.5L91.6,76.6z M33.9,56.6l5.8-10l5.8-10l5.8-10l5.8,10l5.8,10l5.8,10
			H33.9z"/>
		<path class="st0" d="M210.9,76.6l-5.8-10l-5.8-10l-5.8-10l-11.5-20l-5.8-10l-5.8-10l-5.8,10l-5.8,10l-11.5,20l-5.8,10l-5.8,10
			l-5.8,10l-5.8,10h11.5l5.8-10l5.8-10h46.2l5.8,10l5.8,10h11.5L210.9,76.6z M153.2,56.6l5.8-10l5.8-10l5.8-10l5.8,10l5.8,10l5.8,10
			H153.2z"/>
		<polygon points="163.5,1.6 157.7,11.6 152,21.6 152,21.6 151.9,21.6 146.2,31.6 146.2,31.6 140.4,41.6 134.6,51.6 128.9,61.6 
			123.1,71.6 117.3,81.6 111.5,91.6 105.7,81.6 100,71.6 94.2,61.6 88.4,51.6 76.9,31.6 71.1,21.6 59.6,1.6 71.1,1.6 76.9,11.6 
			88.4,31.6 94.2,41.6 100,51.6 105.7,61.6 111.5,71.6 117.3,61.6 123.1,51.6 128.9,41.6 134.6,31.6 140.4,21.6 140.4,21.6 
			140.4,21.6 146.2,11.6 146.2,11.6 151.9,1.6 		"/>
	</g>
	<rect x="88.4" y="17.9" class="st1" width="46.4" height="8.7"/>
	<text transform="matrix(1 0 0 1 88.3486 26.3952)" class="st2 st3">&lt;/CODE&gt;</text>
</g>
</svg>
